# xmcd
#
# Track frame offsets:
#	183
#	12545
#	24145
#	35008
#	44733
#	57820
#	69683
#	83820
#	92245
#	104020
#	115945
#	126008
#	137258
#	150220
#	162895
#	173758
#
# Disc length: 2449
#
# Revision: 1
# Processed by: cddbd v1.5.1PL0 Copyright (c) Steve Scherf et al.
# Submitted via: VisiTrax 2.9.5.181 - For more info visit www.synapsa.com
# Normalized: r0:DSETVAR1
#
DISCID=cb098f10
DTITLE=Various Artist - Country and Western Superstars - 32 Original American C and W Classics -  CD 1
DYEAR=1900
DGENRE=Country
TTITLE0=Kenny Rogers - Reuben James
TTITLE1=Frankie Laine - Mule train
TTITLE2=Patsy Cline - Stop, look and listen
TTITLE3=Dave Dudley - Six days on the road
TTITLE4=Donna Fargo - Daddy
TTITLE5=Roy Drusky - Take these chains from my heart
TTITLE6=Stonewall Jackson - Keep off the grass
TTITLE7=Waylon Jennings - Abilene
TTITLE8=Johnny Lee - Rambling rose
TTITLE9=Patsy Cline - In care of the blues
TTITLE10=Willie Nelson - I didn´t sleep a wink
TTITLE11=Roy Drusky - The last letter
TTITLE12=Frankie Laine - Moonlight gambler
TTITLE13=Kitty Wells - Making believe
TTITLE14=Tex Ritter - Have I stayed away too long
TTITLE15=Buck Owens - Rhythmand booze
EXTD=
EXTT0=
EXTT1=
EXTT2=
EXTT3=
EXTT4=
EXTT5=
EXTT6=
EXTT7=
EXTT8=
EXTT9=
EXTT10=
EXTT11=
EXTT12=
EXTT13=
EXTT14=
EXTT15=
PLAYORDER=
